{"title":"Retreat 2011 DvDRiP XviD - VISUALiSE","uid":6753442,"size":1061281814,"categoryP":"video","categoryS":"movies","magnet":"?xt=urn:btih:9f2693b9205e6f41060011516c7edd8eb30cd3a2&amp;dn=Retreat+2011+DvDRiP+XviD+-+VISUALiSE&amp;tr=udp%3A%2F%2Ftracker.openbittorrent.com%3A80&amp;tr=udp%3A%2F%2Fopen.demonii.com%3A1337&amp;tr=udp%3A%2F%2Ftracker.coppersurfer.tk%3A6969&amp;tr=udp%3A%2F%2Fexodus.desync.com%3A6969","seeders":0,"leechers":1,"uploader":"HeroMaster","files":-1,"time":1318951808,"description":"Retreat 2011 DvDRiP XviD - VISUALiSE\n\n\n\niNFO\n\nTitle: Retreat 2011 DvDRiP XviD - VISUALiSE\nFormat: XViD\nLanguage: English\nSubtitles: No\n\niMDB: http://www.imdb.com/title/tt1410051/\n\nPlot:\nKate and Martin escape from personal tragedy to an Island Retreat.\nCut off from the outside world, their attempts to recover are shattered\nwhen a Man is washed ashore, with news of airborne killer disease that\nis sweeping through Europe.\n\nSources:\nVideo: - thanks\nAudio: - thanks\n\nRelease Notes:\nStraight forward rip on this not much special so hope you enjoy.\n\nInfo:\n\nVideo\nID : 0\nFormat : MPEG-4 Visual\nFormat profile : Advanced Simple@L5\nFormat settings, BVOP : 2\nFormat settings, QPel : No\nFormat settings, GMC : No warppoints\nFormat settings, Matrix : Default (H.263)\nCodec ID : XVID\nCodec ID/Hint : XviD\nDuration : 1h 26mn\nBit rate : 1 498 Kbps\nWidth : 718 pixels\nHeight : 304 pixels\nDisplay aspect ratio : 2.35:1\nFrame rate : 23.976 fps\nColor space : YUV\nChroma subsampling : 4:2:0\nBit depth : 8 bits\nScan type : Progressive\nCompression mode : Lossy\nBits/(Pixel*Frame) : 0.286\nStream size : 924 MiB (91%)\nWriting library : XviD 63\n\nAudio\nID : 1\nFormat : MPEG Audio\nFormat version : Version 1\nFormat profile : Layer 3\nCodec ID : 55\nCodec ID/Hint : MP3\nDuration : 1h 26mn\nBit rate mode : Constant\nBit rate : 128 Kbps\nChannel(s) : 2 channels\nSampling rate : 48.0 KHz\nCompression mode : Lossy\nStream size : 79.0 MiB (8%)\nAlignment : Split accross interleaves\nInterleave, duration : 24 ms (0.58 video frame)\n\n\nPoster:\n\n &lt;a href=&quot;\nhttp://shareimage.org/images/rdbaufgty88zsyrz04g.jpg&quot; rel=&quot;nofollow&quot; target=&quot;_NEW&quot;&gt;\nhttp://shareimage.org/images/rdbaufgty88zsyrz04g.jpg&lt;/a&gt;\n\n\nScreens:\n\n &lt;a href=&quot;\nhttp://shareimage.org/images/rrz4cg371zee2e0p0t4z.png&quot; rel=&quot;nofollow&quot; target=&quot;_NEW&quot;&gt;\nhttp://shareimage.org/images/rrz4cg371zee2e0p0t4z.png&lt;/a&gt;\n &lt;a href=&quot;\nhttp://shareimage.org/images/d6h5ihfe7j4oma6o2uup.png&quot; rel=&quot;nofollow&quot; target=&quot;_NEW&quot;&gt;\nhttp://shareimage.org/images/d6h5ihfe7j4oma6o2uup.png&lt;/a&gt;\n &lt;a href=&quot;\nhttp://shareimage.org/images/eoo2g9uzdgxtl1hie880.png&quot; rel=&quot;nofollow&quot; target=&quot;_NEW&quot;&gt;\nhttp://shareimage.org/images/eoo2g9uzdgxtl1hie880.png&lt;/a&gt;\n\n\nENJOY!","torrent":{"xt":"urn:btih:9f2693b9205e6f41060011516c7edd8eb30cd3a2","amp;dn":"Retreat+2011+DvDRiP+XviD+-+VISUALiSE","amp;tr":["udp%3A%2F%2Ftracker.openbittorrent.com%3A80","udp%3A%2F%2Fopen.demonii.com%3A1337","udp%3A%2F%2Ftracker.coppersurfer.tk%3A6969","udp%3A%2F%2Fexodus.desync.com%3A6969"],"infoHash":"9f2693b9205e6f41060011516c7edd8eb30cd3a2","infoHashBuffer":{"type":"Buffer","data":[159,38,147,185,32,94,111,65,6,0,17,81,108,126,221,142,179,12,211,162]},"announce":[],"urlList":[]}}